<svg version="1.1" preserveAspectRatio="none" xmlns="http://www.w3.org/2000/svg" width="500" height="500" viewBox="0 0 500 500"><rect width="100%" height="100%" fill="#FFFFFF" fill-opacity="0"/><svg viewBox="367.3564 401.9887 396.65 120" width="417" height="126.15656120005042" x="41.5px" y="186.9217px" xmlns="http://www.w3.org/2000/svg" xmlns:xlink="http://www.w3.org/1999/xlink" preserveAspectRatio="none"><defs></defs><style>.companyName {fill:#182145;fill-opacity:1;}.icon1 {fill:#182145;fill-opacity:1;}.icon2 {fill:#E35B34;fill-opacity:1;}.icon3 {fill:#E3D454;fill-opacity:1;}.icon3-str {stroke:#E3D454;stroke-opacity:1;}</style><g opacity="1" transform="rotate(0 367.3564 401.9887)">
<svg width="119.9971" height="120" x="367.3564" y="401.9887" version="1.1" preserveAspectRatio="none" viewBox="14.004251480102539 14.003999710083008 71.99124908447266 71.99299621582031">
  <g transform="matrix(1 0 0 1 0 0)" class="icon1"><path d="M84.194,31.682c-1.52-8.159-7.926-14.398-15.931-15.919c-6.084-1.198-12.25-1.759-18.253-1.759  c-6.165,0-12.33,0.561-18.413,1.759c-8.166,1.521-14.33,7.84-15.852,15.839c-2.321,12.158-2.321,24.558,0,36.636  c1.521,8.24,7.845,14.399,15.852,15.92c6.083,1.278,12.248,1.839,18.413,1.839c6.164,0,12.247-0.561,18.332-1.76  c8.167-1.6,14.332-7.839,15.852-15.918C86.596,56.159,86.596,43.76,84.194,31.682z M42.05,59.72c0.568,0.603,0.541,1.552-0.062,2.12  c-0.29,0.273-0.66,0.409-1.029,0.409c-0.398,0-0.796-0.158-1.091-0.471L29.722,51.026c-0.546-0.578-0.546-1.481,0-2.06  l10.146-10.746c0.569-0.603,1.519-0.629,2.121-0.061c0.602,0.569,0.629,1.519,0.061,2.121l-9.175,9.716L42.05,59.72z M54.028,39.745  l-5.143,21.217c-0.167,0.687-0.78,1.146-1.457,1.146c-0.117,0-0.235-0.014-0.354-0.042c-0.805-0.195-1.3-1.006-1.104-1.812  l5.143-21.217c0.196-0.805,1.006-1.296,1.812-1.104C53.729,38.129,54.224,38.939,54.028,39.745z M70.278,51.033L60.132,61.779  c-0.295,0.313-0.692,0.47-1.091,0.47c-0.37,0-0.74-0.136-1.03-0.409c-0.602-0.569-0.629-1.519-0.061-2.121l9.175-9.716L57.95,40.28  c-0.568-0.603-0.541-1.552,0.062-2.12s1.552-0.54,2.12,0.062l10.146,10.752C70.824,49.552,70.824,50.455,70.278,51.033z"></path></g>
</svg>
</g><g opacity="1" transform="rotate(0 517.3535 401.9887)">
<svg width="246.6529" height="120" x="517.3535" y="401.9887" version="1.1" preserveAspectRatio="none" viewBox="1.56 -28.48 59.519999999999996 28.96">
  <g transform="matrix(1 0 0 1 0 0)" class="companyName"><path id="id-D6z1nYkh2" d="M22.24-6.24L22.24-14.44L28.16-14.44L28.16-3.08Q25.88-1.36 22.88-0.44Q19.88 0.48 16.84 0.48L16.84 0.48Q12.48 0.48 9-1.38Q5.52-3.24 3.54-6.54Q1.56-9.84 1.56-14L1.56-14Q1.56-18.16 3.54-21.46Q5.52-24.76 9.04-26.62Q12.56-28.48 16.96-28.48L16.96-28.48Q20.64-28.48 23.64-27.24Q26.64-26 28.68-23.64L28.68-23.64L24.52-19.80Q21.52-22.96 17.28-22.96L17.28-22.96Q14.60-22.96 12.52-21.84Q10.44-20.72 9.28-18.68Q8.12-16.64 8.12-14L8.12-14Q8.12-11.40 9.28-9.36Q10.44-7.32 12.50-6.18Q14.56-5.04 17.20-5.04L17.20-5.04Q20-5.04 22.24-6.24L22.24-6.24Z M54.64-28L61.08-28L48.96 0L42.56 0L30.48-28L37.48-28L46-8L54.64-28Z"/></g>
</svg>
</g></svg></svg>